<svg xmlns="http://www.w3.org/2000/svg" xmlns:xlink="http://www.w3.org/1999/xlink" width="17px" height="17px" viewBox="0 0 17 17" version="1.1">
<g>
<path style="fill:#8d8d8d" d="M 0.128906 1.824219 C 0.347656 1.359375 0.8125 1.0625 1.328125 1.0625 L 15.671875 1.0625 C 16.1875 1.0625 16.652344 1.359375 16.871094 1.824219 C 17.089844 2.289062 17.023438 2.835938 16.699219 3.234375 L 10.625 10.65625 L 10.625 14.875 C 10.625 15.277344 10.398438 15.644531 10.039062 15.824219 C 9.675781 16.003906 9.246094 15.96875 8.925781 15.726562 L 6.800781 14.132812 C 6.53125 13.933594 6.375 13.617188 6.375 13.28125 L 6.375 10.65625 L 0.296875 3.230469 C -0.0234375 2.835938 -0.09375 2.285156 0.128906 1.824219 Z M 0.128906 1.824219 "/>
</g>
</svg>
